<?xml version="1.0" encoding="UTF-8" standalone="no"?>
<!-- Created with Inkscape (http://www.inkscape.org/) -->

<svg
   xmlns:dc="http://purl.org/dc/elements/1.1/"
   xmlns:cc="http://creativecommons.org/ns#"
   xmlns:rdf="http://www.w3.org/1999/02/22-rdf-syntax-ns#"
   xmlns:svg="http://www.w3.org/2000/svg"
   xmlns="http://www.w3.org/2000/svg"
   xmlns:xlink="http://www.w3.org/1999/xlink"
   xmlns:sodipodi="http://sodipodi.sourceforge.net/DTD/sodipodi-0.dtd"
   xmlns:inkscape="http://www.inkscape.org/namespaces/inkscape"
   width="210mm"
   height="297mm"
   id="svg2"
   version="1.1"
   inkscape:version="0.48.3.1 r9886"
   sodipodi:docname="Novo documento 1">
  <defs
     id="defs4" />
  <sodipodi:namedview
     id="base"
     pagecolor="#ffffff"
     bordercolor="#666666"
     borderopacity="1.0"
     inkscape:pageopacity="0.0"
     inkscape:pageshadow="2"
     inkscape:zoom="0.7"
     inkscape:cx="360.68714"
     inkscape:cy="822.53341"
     inkscape:document-units="px"
     inkscape:current-layer="layer2"
     showgrid="false"
     inkscape:window-width="1301"
     inkscape:window-height="744"
     inkscape:window-x="65"
     inkscape:window-y="24"
     inkscape:window-maximized="1" />
  <metadata
     id="metadata7">
    <rdf:RDF>
      <cc:Work
         rdf:about="">
        <dc:format>image/svg+xml</dc:format>
        <dc:type
           rdf:resource="http://purl.org/dc/dcmitype/StillImage" />
        <dc:title></dc:title>
      </cc:Work>
    </rdf:RDF>
  </metadata>
  <g
     inkscape:label="Camada 1"
     inkscape:groupmode="layer"
     id="layer1"
     style="display:none">
    <image
       y="145.64793"
       x="27.571428"
       id="image3063"
       xlink:href="file:///home/santana/asciibook/fundamentos-psicologicos-da-educacao-livro/livro/images/cap2/Necker.png"
       height="272.53305"
       width="676.28571" />
  </g>
  <g
     inkscape:groupmode="layer"
     id="layer2"
     inkscape:label="Camada">
    <path
       style="fill:none;stroke:#000000;stroke-width:3;stroke-linecap:butt;stroke-linejoin:miter;stroke-miterlimit:4;stroke-opacity:1;stroke-dasharray:none"
       d="m 110.53572,427.00503 202.85714,0"
       id="path3068"
       inkscape:connector-curvature="0" />
    <path
       style="fill:none;stroke:#000000;stroke-width:3;stroke-linecap:butt;stroke-linejoin:miter;stroke-miterlimit:4;stroke-opacity:1;stroke-dasharray:none"
       d="m 110.53572,227.00503 202.85714,0"
       id="path3068-7"
       inkscape:connector-curvature="0" />
    <path
       style="fill:none;stroke:#000000;stroke-width:3;stroke-linecap:butt;stroke-linejoin:miter;stroke-miterlimit:4;stroke-opacity:1;stroke-dasharray:none"
       d="m 213.21429,175.57646 202.85714,0"
       id="path3068-7-8"
       inkscape:connector-curvature="0" />
    <path
       style="fill:none;stroke:#000000;stroke-width:3;stroke-linecap:butt;stroke-linejoin:miter;stroke-miterlimit:4;stroke-opacity:1;stroke-dasharray:none"
       d="m 414.67857,377.71933 0,-202.85716"
       id="path3068-8"
       inkscape:connector-curvature="0" />
    <path
       style="fill:none;stroke:#000000;stroke-width:3;stroke-linecap:butt;stroke-linejoin:miter;stroke-miterlimit:4;stroke-opacity:1;stroke-dasharray:none"
       d="m 311.92096,427.58935 0,-202.85716"
       id="path3068-8-5"
       inkscape:connector-curvature="0" />
    <path
       style="fill:none;stroke:#000000;stroke-width:3;stroke-linecap:butt;stroke-linejoin:miter;stroke-miterlimit:4;stroke-opacity:1;stroke-dasharray:none"
       d="m 111.84174,428.2244 0,-202.85716"
       id="path3068-8-5-2"
       inkscape:connector-curvature="0" />
    <path
       style="fill:none;stroke:#000000;stroke-width:3;stroke-linecap:butt;stroke-linejoin:miter;stroke-miterlimit:4;stroke-opacity:1;stroke-dasharray:none"
       d="m 213.21429,376.82648 0,-202.85716"
       id="path3068-8-5-2-2"
       inkscape:connector-curvature="0" />
    <path
       style="fill:none;stroke:#000000;stroke-width:3;stroke-linecap:butt;stroke-linejoin:miter;stroke-miterlimit:4;stroke-opacity:1;stroke-dasharray:none"
       d="m 213.24999,375.00504 202.85715,0"
       id="path3068-7-2"
       inkscape:connector-curvature="0" />
    <path
       style="fill:none;stroke:#000000;stroke-width:3;stroke-linecap:butt;stroke-linejoin:miter;stroke-miterlimit:4;stroke-opacity:1;stroke-dasharray:none"
       d="M 111.58919,426.41329 213.73204,374.98472"
       id="path3982"
       inkscape:connector-curvature="0" />
    <path
       style="fill:none;stroke:#000000;stroke-width:3;stroke-linecap:butt;stroke-linejoin:miter;stroke-miterlimit:4;stroke-opacity:1;stroke-dasharray:none"
       d="M 311.72969,427.97186 413.87254,376.54329"
       id="path3982-4"
       inkscape:connector-curvature="0" />
    <path
       style="fill:none;stroke:#000000;stroke-width:3;stroke-linecap:butt;stroke-linejoin:miter;stroke-miterlimit:4;stroke-opacity:1;stroke-dasharray:none"
       d="M 111.35461,226.62994 213.49746,175.20137"
       id="path3982-4-5"
       inkscape:connector-curvature="0" />
    <path
       style="fill:none;stroke:#000000;stroke-width:3;stroke-linecap:butt;stroke-linejoin:miter;stroke-miterlimit:4;stroke-opacity:1;stroke-dasharray:none"
       d="M 310.89286,227.71931 413.03571,176.29074"
       id="path3982-4-8"
       inkscape:connector-curvature="0" />
    <path
       style="fill:#000000"
       d="m 498.57141,290.21933 0,-115.85715 111.17605,0 111.17604,0 0,115.85715 0,115.85714 -111.17604,0 -111.17605,0 0,-115.85714 z m 172.92827,86.16143 c -0.54866,-4.53397 -1.40027,-5.64655 -6.15471,-8.04086 -6.86099,-3.45513 -15.14557,-5.4559 -26.5926,-6.42225 -5.15295,-0.435 -6.63523,-0.79084 -8.86349,-2.12781 -2.12736,-1.27641 -2.98934,-2.95868 -3.50403,-6.8386 -0.31255,-2.35612 -0.1086,-3.43981 1.17584,-6.24788 1.95061,-4.26449 1.63909,-6.35736 -1.19522,-8.02964 -1.09427,-0.64564 -2.0225,-1.54284 -2.06273,-1.99379 -0.0402,-0.45095 -0.1196,-1.14905 -0.17639,-1.55133 -0.0568,-0.40228 0.30527,-1.62968 0.80457,-2.72757 0.67733,-1.48936 0.72923,-2.05644 0.20444,-2.23367 -1.91708,-0.64741 -4.58427,-2.98078 -4.75382,-4.15882 -0.10503,-0.72973 0.22411,-2.54494 0.73142,-4.03381 0.50731,-1.48886 0.92238,-4.09294 0.92238,-5.78684 0,-3.07358 -0.007,-3.08528 -3.50694,-5.77834 -3.97763,-3.06072 -4.68626,-4.09597 -4.68191,-6.83989 0.004,-2.2931 0.92643,-3.81448 5.32218,-8.77459 4.99334,-5.63442 13.80195,-19.04831 14.58788,-22.21464 0.53834,-2.16886 0.50041,-3.56458 -0.18778,-6.90931 -1.01709,-4.94322 -0.65465,-7.1754 1.80843,-11.13767 0.95311,-1.53324 2.05227,-3.80785 2.44256,-5.0547 4.86642,-15.54648 10.3686,-25.68931 18.01255,-33.20468 7.17949,-7.05873 14.17327,-10.40749 25.84077,-12.37308 3.7077,-0.62463 -8.08418,-0.74525 -71.92562,-0.73574 -43.10177,0.006 -74.91128,0.22393 -73.03328,0.49942 8.87126,1.30136 17.58163,4.85017 23.42643,9.54447 4.21254,3.38334 9.15906,9.30764 12.51233,14.98565 2.63158,4.45601 3.30673,6.03448 7.25803,16.96898 1.22111,3.37917 3.1893,7.98203 4.37378,10.22858 1.77013,3.35733 2.09895,4.50341 1.84672,6.43651 -0.92628,7.09891 -1.06479,9.2154 -0.72248,11.04006 0.59885,3.19211 9.63353,16.48489 15.6664,23.05005 3.85662,4.19689 5.13941,7.33163 4.06044,9.92247 -0.37551,0.90169 -2.23566,2.77339 -4.13366,4.15935 -4.26538,3.11465 -4.70726,4.75434 -3.02662,11.2308 1.32414,5.10268 0.91675,6.35736 -2.61036,8.03932 -1.45098,0.69193 -1.9271,1.23244 -1.65479,1.87857 1.35462,3.21423 1.54746,4.07774 1.21049,5.42034 -0.23704,0.94442 -0.91738,1.637 -1.83411,1.86708 -0.83131,0.20865 -1.87782,1.17899 -2.43631,2.25898 -0.53846,1.04127 -0.97601,1.89322 -0.97233,1.89322 0.004,0 0.73449,1.43624 1.62402,3.19165 1.40709,2.77676 1.5789,3.67048 1.32165,6.87521 -0.16263,2.02597 -0.74319,4.36654 -1.29013,5.20129 -1.45638,2.22271 -5.19615,3.61518 -10.84308,4.03731 -14.09754,1.05387 -27.43091,5.16164 -31.16732,9.60211 -1.31319,1.56064 -1.60035,2.47133 -1.60035,5.07527 l 0,3.17336 62.09195,0 62.09195,0 -0.40715,-3.36454 z"
       id="path4108"
       inkscape:connector-curvature="0" />
  </g>
</svg>
